<?xml version="1.0" encoding="utf-8"?>
<!-- Generator: Adobe Illustrator 25.0.0, SVG Export Plug-In . SVG Version: 6.00 Build 0)  -->
<svg version="1.1" id="Vrstva_1" xmlns="http://www.w3.org/2000/svg" xmlns:xlink="http://www.w3.org/1999/xlink" x="0px" y="0px"
	 viewBox="0 0 124.4 853.6" style="enable-background:new 0 0 124.4 853.6;" xml:space="preserve">
<style type="text/css">
	.st0{fill:#656C76;}
	.st1{fill:#C7C6C3;}
	.st2{fill:#FDC614;}
	.st3{fill:none;stroke:#CC8B18;stroke-width:6.816;stroke-miterlimit:10;}
	.st4{fill:none;stroke:#CC8B18;stroke-width:4.544;stroke-miterlimit:10;}
	.st5{fill:none;stroke:#CC8B18;stroke-width:3.976;stroke-miterlimit:10;}
	.st6{fill:#CC8B18;}
	.st7{opacity:0.4;fill:#FFFFFF;enable-background:new    ;}
	.st8{fill:none;stroke:#717171;}
</style>
<path id="Path_158" class="st0" d="M39.6,329.3c0-7,10.1-12.6,22.6-12.6s22.6,5.6,22.6,12.6"/>
<g id="Group_35" transform="translate(970.259 262.168)">
	<g id="Group_34-2" transform="translate(0 0)">
		<g id="Group_33-2">
			<path id="Path_159-2" class="st1" d="M-916.9,92.6c-2.1,0-3.7-1.7-3.7-3.7l0,0l0,0c0-2.1,1.7-3.7,3.7-3.7l0,0h40.5
				c-0.7-1.9-2.5-3.1-4.5-3.1h-0.1v-4.5h0.1l-30.6-0.2c-1.8,0-3.2-1.4-3.2-3.1c0-1.8,1.4-3.2,3.1-3.2h0.1h34.3
				c0.4,0,0.8,0.1,1.1,0.2l0,0c0-2.6-2.1-4.8-4.8-4.8h-54.3c-2.6,0-4.8,2.1-4.8,4.8v1.6c0,2.6,2.1,4.8,4.8,4.8h0.1v4.5h-0.1
				c-2.6,0-4.8,2.1-4.8,4.8l0,0v1.4c0,2.6,2.1,4.8,4.8,4.8l0,0h0.1v4.4h-2.8c-2.9,0-5.2,2.3-5.2,5.2l0,0v1.7c0,2.9,2.3,5.2,5.2,5.2
				l0,0h18.2c-1.8-0.5-3-2.2-3-4v-0.5c0-2.3,1.9-4.2,4.2-4.2l0,0h43.4c0.6,0,1.3,0.1,1.9,0.2c-0.6-2.2-2.7-3.8-5-3.6h-2.8v-4.4h0.1"
				/>
		</g>
	</g>
</g>
<path id="Path_160" class="st2" d="M104.6,404.4c-0.8-1.2-1.5-2.5-2.1-3.9c-1.1-2.7-1.6-5.7-2.5-8.5c-1-3.1-2-6.2-3-9.3
	c-1.2-3.8-2.5-7.7-3.7-11.5H32.5l-5.3,16.5c-1.4,4.2-2.4,8.5-3.9,12.6c-1.5,4.2-5.4,6.6-8.2,9.9c-2.4,2.8-4.5,5.8-6.5,9
	c-3.8,6.4-6.5,13.4-7.8,20.7c-0.1,0.4-0.1,0.8-0.2,1.1c-5.3,34,18,65.8,51.9,71c34,5.3,65.8-18,71-51.9c2.8-18-2.4-36.3-14.3-50.1
	C107.6,408.3,106,406.4,104.6,404.4z M22.9,402.4L22.9,402.4L22.9,402.4L22.9,402.4z"/>
<path id="Path_161" class="st3" d="M74.4,371.2l-0.2,19.7c0,4.1-3.3,7.4-7.4,7.4h-9.3c-4.1,0-7.4-3.3-7.4-7.4l0.2-19.7"/>
<path id="Path_162" class="st4" d="M72.7,399.5c-0.4-1.4-1.7-2.4-3.1-2.3l-11.7,0.2l-3,0.1c-1.4,0-2.6,1-3,2.3L41.1,440
	c-0.4,1.7,0.6,3.4,2.3,3.9c0.6,0.2,1.2,0.1,1.8,0c2.7-0.9,5.7-0.5,8.1,1c1,0.6,2.2,0.7,3.3,0.1c2.5-1.4,7.4-3.4,12.2-0.3
	c0.9,0.6,2,0.6,3,0.2c2.6-1.3,5.6-1.9,8.5-1.7c1.7,0.2,3.3-1,3.5-2.8c0-0.4,0-0.8-0.1-1.2L72.7,399.5z"/>
<path id="Path_163" class="st5" d="M54.5,443.2l3.6-24.3v-21.5h8.2v21.1l4.3,24.1"/>
<path id="Rectangle_143" class="st6" d="M56,413.9h13.2c1.8,0,3.2,1.4,3.2,3.2l0,0c0,1.8-1.4,3.2-3.2,3.2H56c-1.8,0-3.2-1.4-3.2-3.2
	l0,0C52.8,415.4,54.2,413.9,56,413.9z"/>
<path id="Path_164" class="st7" d="M80.7,461.4c0,0,16.8-9.1,19.4-19.3c0,0,6.3-3.2,9.8,2.6c0,0-3.6,17.1-24.7,26.9
	C85.2,471.6,76.3,473.2,80.7,461.4z"/>
<g id="Rectangle_149" transform="translate(1005 -10)">
	<rect x="-943.1" y="10" class="st0" width="6" height="323.4"/>
	<rect x="-942.6" y="10.6" class="st8" width="5" height="322.2"/>
</g>
</svg>
