<?xml version="1.0" encoding="utf-8"?>
<!-- Generator: Adobe Illustrator 25.0.0, SVG Export Plug-In . SVG Version: 6.00 Build 0)  -->
<svg version="1.1" id="Vrstva_1" xmlns="http://www.w3.org/2000/svg" xmlns:xlink="http://www.w3.org/1999/xlink" x="0px" y="0px"
	 viewBox="0 0 153.3 853.6" style="enable-background:new 0 0 153.3 853.6;" xml:space="preserve">
<style type="text/css">
	.st0{fill:#656C76;}
	.st1{fill:#C7C6C3;}
	.st2{fill:#C6E7F7;}
	.st3{fill:none;stroke:#72A1B8;stroke-width:6.82;stroke-miterlimit:10;}
	.st4{fill:none;stroke:#72A1B8;stroke-width:4.54;stroke-miterlimit:10;}
	.st5{fill:none;stroke:#72A1B8;stroke-width:3.98;stroke-miterlimit:10;}
	.st6{fill:#72A1B8;}
	.st7{opacity:0.4;fill:#FFFFFF;enable-background:new    ;}
	.st8{fill:none;stroke:#717171;}
</style>
<g id="Group_44">
	<path id="Path_165" class="st0" d="M49.1,627.1c0-8.6,12.5-15.5,27.8-15.5s27.8,7,27.8,15.5"/>
	<g id="Group_38">
		<g id="Group_37">
			<g id="Group_36">
				<path id="Path_166" class="st1" d="M66.1,658.6c-2.5,0-4.6-2.1-4.6-4.6l0,0c0-2.5,2.1-4.6,4.6-4.6H116c-0.9-2.3-3.1-3.8-5.5-3.8
					h-0.1V640h0.1l-37.7-0.2c-2.2,0-3.9-1.7-3.9-3.9l0,0c0.1-2.1,1.8-3.8,3.9-3.9h42.3c0.5,0,0.9,0.1,1.4,0.2l0,0
					c0-3.2-2.6-5.9-5.8-5.9c0,0-0.1,0-0.1,0h-67c-3.2,0-5.9,2.6-5.9,5.8c0,0,0,0.1,0,0.1l0,0v1.9c0,3.2,2.6,5.9,5.8,5.9
					c0,0,0.1,0,0.1,0h0.1v5.6h-0.1c-3.2,0-5.9,2.6-5.9,5.8c0,0,0,0.1,0,0.1v1.9c0,3.2,2.6,5.9,5.8,5.9c0,0,0.1,0,0.1,0h0.1v5.5h-3.5
					c-3.5,0-6.4,2.8-6.4,6.4c0,0,0,0,0,0l0,0v2c0,3.5,2.8,6.4,6.4,6.4c0,0,0,0,0,0h22.5c-2.2-0.7-3.7-2.7-3.7-5V674
					c0-2.8,2.3-5.2,5.1-5.2c0,0,0.1,0,0.1,0h53.5c0.8,0,1.6,0.1,2.3,0.3c-0.7-2.8-3.3-4.7-6.2-4.5h-3.5v-5.3h0.1"/>
			</g>
		</g>
	</g>
	<path id="Path_167" class="st2" d="M129.2,719.7c-1-1.5-1.9-3.1-2.6-4.8c-1.3-3.4-2-7-3.1-10.4c-1.3-3.8-2.4-7.6-3.7-11.4
		c-1.5-4.7-3.1-9.5-4.6-14.2h-75l-6.6,20.4c-1.7,5.2-3,10.5-4.8,15.6s-6.7,8.2-10.1,12.2c-2.9,3.5-5.6,7.2-8,11.1
		c-4.7,7.9-8,16.6-9.6,25.6c-0.1,0.5-0.2,0.9-0.2,1.4c-6.5,41.8,22.2,81,64,87.5c41.8,6.5,81-22.2,87.5-64
		c3.4-22.2-3-44.7-17.6-61.7C133,724.6,131,722.2,129.2,719.7z"/>
	<path id="Path_168" class="st3" d="M92.1,678.9l-0.2,24.3c0,5-4.1,9.1-9.1,9.1H71.3c-5,0-9.1-4.1-9.1-9.1l0.2-24.3"/>
	<path id="Path_169" class="st4" d="M89.9,713.7c-0.5-1.7-2-2.9-3.8-2.9L71.7,711l-3.7,0.1c-1.7,0-3.2,1.2-3.7,2.9L51,763.5
		c-0.6,2.1,0.7,4.2,2.8,4.8c0,0,0,0,0,0c0.7,0.2,1.5,0.2,2.2,0c3.3-1.1,7-0.7,10,1.2c1.2,0.8,2.8,0.8,4,0.1
		c3.1-1.7,9.2-4.1,15.1-0.4c1.1,0.7,2.5,0.8,3.6,0.2c2.3-1.1,6.4-2.6,10.5-2.1c2.1,0.2,4-1.3,4.3-3.4c0.1-0.5,0-1-0.1-1.5
		L89.9,713.7z"/>
	<path id="Path_170" class="st5" d="M67.5,767.6l4.5-30V711h10.1v26l5.3,29.7"/>
	<path id="Rectangle_144" class="st6" d="M69.4,731.5h16.3c2.2,0,3.9,1.7,3.9,3.9l0,0l0,0c0,2.2-1.7,3.9-3.9,3.9c0,0,0,0,0,0H69.4
		c-2.2,0-3.9-1.7-3.9-3.9l0,0l0,0c0-2.1,1.7-3.9,3.8-3.9C69.3,731.5,69.4,731.5,69.4,731.5z"/>
	<path id="Path_171" class="st7" d="M106,817.4c0,0,16.8-9.1,19.4-19.3c0,0,6.3-3.2,9.8,2.6c0,0-3.6,17.1-24.7,26.9
		C110.5,827.5,101.6,829.2,106,817.4z"/>
</g>
<g id="Rectangle_147">
	<rect x="69.2" y="0" class="st0" width="11" height="612"/>
	<rect x="69.7" y="0.6" class="st8" width="10" height="610.9"/>
</g>
</svg>
