<?xml version="1.0" encoding="utf-8"?>
<!-- Generator: Adobe Illustrator 25.0.0, SVG Export Plug-In . SVG Version: 6.00 Build 0)  -->
<svg version="1.1" id="Vrstva_1" xmlns="http://www.w3.org/2000/svg" xmlns:xlink="http://www.w3.org/1999/xlink" x="0px" y="0px"
	 viewBox="0 0 81.2 853.6" style="enable-background:new 0 0 81.2 853.6;" xml:space="preserve">
<style type="text/css">
	.st0{fill:#656C76;}
	.st1{fill:#C7C6C3;}
	.st2{fill:#FDC614;}
	.st3{fill:none;stroke:#CC8B18;stroke-width:6.816;stroke-miterlimit:10;}
	.st4{fill:none;stroke:#CC8B18;stroke-width:4.544;stroke-miterlimit:10;}
	.st5{fill:none;stroke:#CC8B18;stroke-width:3.976;stroke-miterlimit:10;}
	.st6{fill:#CC8B18;}
	.st7{fill:none;stroke:#717171;}
</style>
<g id="_3">
	<path id="Path_179" class="st0" d="M26,172.5c0-4.5,6.6-8.2,14.7-8.2s14.7,3.7,14.7,8.2"/>
	<g id="Group_43" transform="translate(1423.797 105.031)">
		<g id="Group_34">
			<g id="Group_33">
				<path id="Path_159" class="st1" d="M-1388.8,84.1c-1.3,0-2.4-1.1-2.4-2.4l0,0l0,0c0-1.3,1.1-2.4,2.4-2.4l0,0h26.4
					c-0.5-1.2-1.6-2-2.9-2h-0.1v-2.9h0.1l-20-0.1c-1.1,0-2.1-0.9-2.1-2.1c0-1.1,0.9-2.1,2.1-2.1h22.4c0.2,0,0.5,0,0.7,0.1l0,0
					c0-1.7-1.4-3.1-3.1-3.1h-35.5c-1.7,0-3.1,1.4-3.1,3.1v1c0,1.7,1.4,3.1,3.1,3.1h0.1v2.9h-0.1c-1.7,0-3.1,1.4-3.1,3.1v1
					c0,1.7,1.4,3.1,3.1,3.1l0,0h0.1v2.9h-1.8c-1.9,0-3.4,1.5-3.4,3.4l0,0v1.1c0,1.9,1.5,3.4,3.4,3.4l0,0h11.9c-1.2-0.3-2-1.4-2-2.6
					v-0.3c0-1.5,1.2-2.7,2.7-2.7l0,0h28.3c0.4,0,0.8,0,1.2,0.1c-0.4-1.5-1.7-2.5-3.3-2.4h-1.8v-2.9h0.1"/>
			</g>
		</g>
	</g>
	<path id="Path_180" class="st2" d="M68.4,221.5c-0.5-0.8-1-1.6-1.4-2.5c-0.7-1.8-1-3.7-1.6-5.5c-0.7-2-1.3-4-1.9-6.1
		c-0.8-2.5-1.6-5-2.4-7.5H21.4l-3.5,10.8c-0.9,2.7-1.6,5.5-2.6,8.2s-3.6,4.3-5.4,6.5c-1.6,1.8-3,3.8-4.2,5.9
		c-2.5,4.2-4.2,8.7-5.1,13.5c0,0.2-0.1,0.5-0.1,0.7c-3.4,22.2,11.7,42.9,33.9,46.4c22.2,3.4,42.9-11.7,46.4-33.9
		c1.8-11.7-1.6-23.7-9.3-32.7C70.4,224.1,69.4,222.8,68.4,221.5z M15.1,220.2L15.1,220.2L15.1,220.2z"/>
	<path id="Path_181" class="st3" d="M48.8,199.9l-0.1,12.8c0,2.7-2.2,4.8-4.8,4.8h-6.1c-2.7,0-4.8-2.2-4.8-4.8l0.1-12.8"/>
	<path id="Path_182" class="st4" d="M47.6,218.3c-0.2-0.9-1.1-1.5-2-1.5l-7.6,0.1h-2c-0.9,0-1.7,0.6-2,1.5l-7.1,26.2
		c-0.3,1.1,0.4,2.2,1.5,2.5c0.4,0.1,0.8,0.1,1.1,0c1.8-0.6,3.7-0.4,5.3,0.6c0.6,0.4,1.5,0.4,2.1,0.1c1.6-0.9,4.9-2.2,8-0.2
		c0.6,0.4,1.3,0.4,1.9,0.1c1.7-0.9,3.7-1.2,5.6-1.1c1.1,0.1,2.2-0.7,2.3-1.8c0-0.3,0-0.5-0.1-0.8L47.6,218.3z"/>
	<path id="Path_183" class="st5" d="M35.7,246.9l2.4-15.9v-14.1h5.4v13.8l2.8,15.7"/>
	<path id="Rectangle_146" class="st6" d="M36.7,227.8h8.6c1.1,0,2.1,0.9,2.1,2.1l0,0c0,1.1-0.9,2.1-2.1,2.1h-8.6
		c-1.1,0-2.1-0.9-2.1-2.1l0,0C34.7,228.7,35.6,227.8,36.7,227.8z"/>
	<g id="Rectangle_148" transform="translate(1444 -67)">
		<rect x="-1405.9" y="67" class="st0" width="6" height="168"/>
		<rect x="-1405.4" y="67.5" class="st7" width="5" height="167"/>
	</g>
</g>
</svg>
