<?xml version="1.0" encoding="utf-8"?>
<!-- Generator: Adobe Illustrator 25.0.0, SVG Export Plug-In . SVG Version: 6.00 Build 0)  -->
<svg version="1.1" id="Vrstva_1" xmlns="http://www.w3.org/2000/svg" xmlns:xlink="http://www.w3.org/1999/xlink" x="0px" y="0px"
	 viewBox="0 0 94.6 853.6" style="enable-background:new 0 0 94.6 853.6;" xml:space="preserve">
<style type="text/css">
	.st0{fill:#656C76;}
	.st1{fill:#C7C6C3;}
	.st2{fill:#FDC614;}
	.st3{fill:none;stroke:#CC8B18;stroke-width:6.816;stroke-miterlimit:10;}
	.st4{fill:none;stroke:#CC8B18;stroke-width:4.544;stroke-miterlimit:10;}
	.st5{fill:none;stroke:#CC8B18;stroke-width:3.976;stroke-miterlimit:10;}
	.st6{fill:#CC8B18;}
	.st7{opacity:0.4;fill:#FFFFFF;enable-background:new    ;}
	.st8{fill:none;stroke:#717171;}
</style>
<path id="Path_172" class="st0" d="M29.6,522c0-5.3,7.7-9.6,17.2-9.6S64,516.7,64,522"/>
<g id="Group_41" transform="translate(1800.212 455.063)">
	<g id="Group_40" transform="translate(0)">
		<g id="Group_39">
			<path id="Path_173" class="st1" d="M-1760.1,86.3c-1.6,0-2.8-1.3-2.8-2.8l0,0c0-1.6,1.3-2.8,2.8-2.8h30.8
				c-0.5-1.4-1.9-2.4-3.4-2.4h-0.1v-3.4h0.1l-23.3-0.1c-1.3,0-2.4-1.1-2.4-2.4s1.1-2.4,2.4-2.4l0,0h26.1c0.3,0,0.6,0.1,0.8,0.2l0,0
				c0-2-1.6-3.6-3.6-3.6l0,0h-41.3c-2,0-3.6,1.6-3.6,3.6l0,0v1.2c0,2,1.6,3.6,3.6,3.6h0.1v3.4h-0.1c-2,0-3.6,1.6-3.6,3.6v1.2
				c0,2,1.6,3.6,3.6,3.6l0,0h0.1v3.4h-2.1c-2.2,0-4,1.8-4,4l0,0v1.2c0,2.2,1.8,4,4,4l0,0h13.9c-1.4-0.4-2.3-1.6-2.3-3.1V96
				c0-1.8,1.4-3.2,3.2-3.2h33c0.5,0,1,0.1,1.4,0.2c-0.5-1.7-2-2.9-3.8-2.8h-2.1v-3.4h0.1"/>
		</g>
	</g>
</g>
<path id="Path_174" class="st2" d="M79.1,579.1c-0.6-0.9-1.2-1.9-1.6-2.9c-0.8-2.1-1.2-4.3-1.9-6.4c-0.8-2.3-1.5-4.7-2.3-7.1
	c-0.9-2.9-1.9-5.8-2.8-8.8H24.2l-4,12.6c-1,3.2-1.9,6.5-3,9.6c-1.1,3.2-4.1,5-6.2,7.5c-1.8,2.1-3.5,4.4-4.9,6.8
	c-2.9,4.8-4.9,10.2-5.9,15.8c0,0.3-0.1,0.6-0.1,0.9c-4,25.8,13.7,50,39.5,54s50-13.7,54-39.5c2.1-13.7-1.9-27.6-10.9-38.1
	C81.4,582.1,80.2,580.6,79.1,579.1z M16.9,577.6L16.9,577.6L16.9,577.6z"/>
<path id="Path_175" class="st3" d="M56.2,553.9l-0.1,15c0,3.1-2.5,5.6-5.6,5.6h-7.1c-3.1,0-5.6-2.5-5.6-5.6l0.1-15"/>
<path id="Path_176" class="st4" d="M54.8,575.4c-0.3-1.1-1.3-1.8-2.4-1.8l-8.9,0.2h-2.3c-1.1,0-2,0.7-2.3,1.8l-8.2,30.5
	c-0.3,1.3,0.4,2.6,1.7,2.9c0.4,0.1,0.9,0.1,1.3,0c2.1-0.7,4.3-0.4,6.1,0.7c0.7,0.5,1.7,0.5,2.5,0.1c1.9-1.1,5.7-2.6,9.3-0.3
	c0.7,0.4,1.5,0.5,2.2,0.1c2-1,4.3-1.5,6.5-1.3c1.3,0.2,2.5-0.8,2.7-2.1c0-0.3,0-0.6-0.1-0.9L54.8,575.4z"/>
<path id="Path_177" class="st5" d="M41,608.7l2.7-18.5v-16.4h6.2v16l3.3,18.3"/>
<path id="Rectangle_145" class="st6" d="M42.1,586.4h10c1.3,0,2.4,1.1,2.4,2.4l0,0c0,1.3-1.1,2.4-2.4,2.4h-10
	c-1.3,0-2.4-1.1-2.4-2.4l0,0C39.7,587.5,40.8,586.4,42.1,586.4z"/>
<path id="Path_178" class="st7" d="M64.7,639.4c0,0,10.4-5.6,12-11.9c0,0,3.9-2,6,1.6c0,0-2.3,10.5-15.2,16.6
	C67.5,645.6,62,646.6,64.7,639.4z"/>
<g id="Rectangle_150" transform="translate(1824 -12)">
	<rect x="-1780" y="12.6" class="st0" width="6" height="521.8"/>
	<rect x="-1779.5" y="13.1" class="st8" width="5" height="520.7"/>
</g>
</svg>
