<?xml version="1.0" encoding="utf-8"?>
<!-- Generator: Adobe Illustrator 23.0.1, SVG Export Plug-In . SVG Version: 6.00 Build 0)  -->
<svg version="1.1" id="Layer_1" xmlns="http://www.w3.org/2000/svg" xmlns:xlink="http://www.w3.org/1999/xlink" x="0px" y="0px"
	 viewBox="0 0 189.6 67.7" style="enable-background:new 0 0 189.6 67.7;" xml:space="preserve">
<style type="text/css">
	.st0{fill:#26A8E4;}
</style>
<g>
	<g>
		<g>
			<path class="st0" d="M86.8,53c-0.8,0-1.5-0.1-2.2-0.2c-0.7-0.1-1.3-0.3-1.8-0.5v-2.6c0.5,0.2,1.2,0.4,1.8,0.6
				c0.7,0.2,1.3,0.2,1.9,0.2c0.8,0,1.3-0.1,1.7-0.2c0.4-0.1,0.6-0.4,0.6-0.9c0-0.3-0.1-0.6-0.3-0.8c-0.2-0.2-0.5-0.4-0.9-0.5
				c-0.4-0.1-1-0.3-1.7-0.5c-0.8-0.2-1.5-0.5-2-0.8c-0.5-0.3-0.8-0.7-1.1-1.1c-0.2-0.4-0.3-1-0.3-1.6c0-1.2,0.4-2,1.2-2.6
				c0.8-0.6,2-0.9,3.7-0.9c0.7,0,1.4,0.1,2,0.2c0.7,0.1,1.2,0.2,1.6,0.4v2.6c-0.5-0.2-1.1-0.4-1.6-0.5c-0.5-0.1-1.1-0.2-1.6-0.2
				c-0.7,0-1.2,0.1-1.6,0.2c-0.4,0.1-0.6,0.4-0.6,0.9c0,0.3,0.1,0.5,0.2,0.6c0.1,0.2,0.4,0.3,0.8,0.4c0.4,0.1,0.9,0.3,1.5,0.5
				c1,0.3,1.7,0.6,2.3,0.9c0.5,0.4,0.9,0.8,1.1,1.3c0.2,0.5,0.3,1,0.3,1.6c0,1.1-0.4,1.9-1.2,2.6C89.7,52.7,88.5,53,86.8,53z
				 M86.2,39.9l-2.7-3.5h2.3l1.3,2l1.4-2h2.3l-2.7,3.5H86.2z"/>
			<path class="st0" d="M98.8,53c-1.1,0-2.1-0.2-2.9-0.5c-0.8-0.4-1.5-0.9-1.9-1.6c-0.5-0.7-0.7-1.6-0.7-2.6v-7.5h3V48
				c0,0.8,0.2,1.5,0.7,1.9c0.4,0.4,1.1,0.6,1.9,0.6c0.8,0,1.4-0.2,1.9-0.6c0.4-0.4,0.7-1,0.7-1.9v-7.2h3v7.5c0,1-0.2,1.9-0.7,2.6
				c-0.5,0.7-1.1,1.3-1.9,1.6C100.9,52.8,99.9,53,98.8,53z"/>
			<path class="st0" d="M106.2,53V40.9h6.4c1.2,0,2.1,0.3,2.7,0.9c0.6,0.6,0.9,1.4,0.9,2.4c0,0.6-0.1,1.2-0.4,1.6
				c-0.2,0.4-0.6,0.8-1,1c0.5,0.2,1,0.5,1.3,0.9c0.3,0.4,0.5,1,0.5,1.7c0,1.2-0.3,2-1,2.6c-0.7,0.6-1.6,0.9-2.9,0.9H106.2z
				 M109.2,45.9h2.5c0.5,0,0.9-0.1,1.1-0.4c0.2-0.2,0.4-0.6,0.4-1c0-0.5-0.1-0.8-0.4-1c-0.2-0.2-0.7-0.3-1.3-0.3h-2.3V45.9z
				 M109.2,50.9h2.8c0.6,0,1-0.1,1.2-0.3s0.4-0.6,0.4-1.2c0-0.5-0.1-0.8-0.4-1c-0.3-0.2-0.7-0.3-1.3-0.3h-2.6V50.9z"/>
			<path class="st0" d="M118.2,53V40.9h6c1.4,0,2.5,0.4,3.2,1.1c0.7,0.8,1,1.8,1,3c0,0.8-0.2,1.5-0.6,2.1c-0.4,0.6-1,1.1-1.7,1.4
				c0.2,0.1,0.3,0.3,0.4,0.5c0.1,0.2,0.2,0.4,0.3,0.7l1.4,3.3h-3.2l-1.3-3.1c-0.1-0.3-0.3-0.5-0.4-0.6c-0.2-0.1-0.4-0.2-0.8-0.2
				h-1.4V53H118.2z M121.2,46.9h2.2c0.6,0,1-0.1,1.4-0.4c0.3-0.3,0.5-0.7,0.5-1.3c0-1.2-0.6-1.8-1.7-1.8h-2.4V46.9z"/>
		</g>
		<g>
			<path class="st0" d="M82.6,31.9V15.2h12.3v3.2h-8.1v3.5h7.2v3.3h-7.2v3.5h8.1v3.2H82.6z"/>
			<path class="st0" d="M96.9,31.9V15.2h4.2v13.5h7.9v3.2H96.9z"/>
			<path class="st0" d="M110.5,31.9V15.2h12.3v3.2h-8.1v3.5h7.2v3.3h-7.2v3.5h8.1v3.2H110.5z"/>
			<path class="st0" d="M124.8,31.9V15.2h4.2v6.5l5.7-6.5h4.8l-6,6.8l6.3,9.9h-4.5l-4.5-7.2l-2,2.1v5H124.8z"/>
			<path class="st0" d="M144.9,31.9V18.4H140v-3.2h14v3.2h-4.9v13.5H144.9z"/>
			<path class="st0" d="M155.8,31.9V15.2h8.3c2,0,3.4,0.5,4.4,1.6c0.9,1,1.4,2.4,1.4,4.2c0,1.1-0.3,2.1-0.9,3s-1.3,1.5-2.3,1.9
				c0.2,0.2,0.4,0.4,0.6,0.6c0.1,0.2,0.3,0.6,0.5,1l2,4.5h-4.4l-1.9-4.2c-0.2-0.4-0.4-0.6-0.6-0.8c-0.2-0.2-0.6-0.2-1-0.2H160v5.3
				H155.8z M160,23.4h3.1c0.8,0,1.4-0.2,1.9-0.6c0.5-0.4,0.7-1,0.7-1.9c0-1.7-0.8-2.5-2.4-2.5H160V23.4z"/>
			<path class="st0" d="M179.5,31.9c-2.7,0-4.8-0.7-6.2-2.1c-1.4-1.4-2.1-3.5-2.1-6.4c0-3.1,0.7-5.3,2.1-6.7c1.4-1.3,3.5-2,6.2-2
				c2.7,0,4.8,0.7,6.2,2c1.4,1.3,2.1,3.6,2.1,6.7c0,2.9-0.7,5.1-2.1,6.4C184.2,31.2,182.2,31.9,179.5,31.9z M179.5,28.3
				c1.4,0,2.4-0.4,3.1-1.2c0.6-0.8,1-2.1,1-3.8c0-1.9-0.3-3.2-1-3.9c-0.6-0.8-1.7-1.2-3.1-1.2c-1.4,0-2.4,0.4-3.1,1.2
				c-0.6,0.8-1,2.1-1,3.9c0,1.7,0.3,3,1,3.8C177,27.9,178,28.3,179.5,28.3z"/>
		</g>
	</g>
	<g>
		<path class="st0" d="M27.2,2.4c0,0-21.4,7.1-22.2,30.9h9.8c0,0-1.3-11.6,12.4-20L27.2,2.4z"/>
		<path class="st0" d="M17,43.5c0,0,2.9,7,10,10.9v11.1c0,0-16.3-6-20.7-22.1L17,43.5z"/>
		<path class="st0" d="M38.7,57.3c0,0,14,1,21.2-14h10.5c0,0-4.8,22.5-31.9,24L38.7,57.3z"/>
		<path class="st0" d="M71.9,33.5C70.1,1,38.7,0.3,38.7,0.3l-0.1,10.3c14.2,1.5,19.7,10,21.9,16.2H46.7c-1.1-3.1-4-5.3-7.4-5.3h-7.9
			v3.4H24c-0.6,0-1,0.5-1,1.1v0.3c0,0.6,0.5,1,1,1h7.4v6.3h-7.2c-0.7,0-1.2,0.5-1.2,1.2s0.5,1.2,1.2,1.2h7.2v3.4h7.9
			c3.6,0,6.7-2.5,7.6-5.8h15L71.9,33.5z"/>
	</g>
</g>
</svg>
