<svg xmlns="http://www.w3.org/2000/svg" width="715" height="76.716" viewBox="0 0 715 76.716">
  <g id="nav" transform="translate(-70 -46.767)">
    <g id="nav-2" data-name="nav" transform="translate(-125 28)">
      <text id="O_FIRMĚ" data-name="O FIRMĚ" transform="translate(493 64)" fill="#707070" font-size="20" font-family="WorkSans-Bold, Work Sans" font-weight="700"><tspan x="0" y="0">O FIRMĚ</tspan></text>
      <text id="NAŠE_SLUŽBY" data-name="NAŠE SLUŽBY" transform="translate(621 64)" fill="#707070" font-size="20" font-family="WorkSans-Bold, Work Sans" font-weight="700"><tspan x="0" y="0">NAŠE SLUŽBY</tspan></text>
      <text id="KONTAKT" transform="translate(815 64)" fill="#707070" font-size="20" font-family="WorkSans-Bold, Work Sans" font-weight="700"><tspan x="0" y="0">KONTAKT</tspan></text>
    </g>
    <g id="LOGO" transform="translate(65 46.467)">
      <g id="Group_31" data-name="Group 31" transform="translate(93.738 16.788)">
        <g id="Group_29" data-name="Group 29" transform="translate(0 24.847)">
          <path id="Path_143" data-name="Path 143" d="M87.424,55.407a17.151,17.151,0,0,1-2.519-.229,8.88,8.88,0,0,1-2.061-.573V51.629c.573.229,1.374.458,2.061.687a9.361,9.361,0,0,0,4.122,0,.921.921,0,0,0,.687-1.031,1.3,1.3,0,0,0-.343-.916A2.214,2.214,0,0,0,88.34,49.8c-.458-.114-1.145-.343-1.947-.573a8.653,8.653,0,0,1-2.29-.916,4.395,4.395,0,0,1-1.26-1.26,4.36,4.36,0,0,1-.344-1.832,3.4,3.4,0,0,1,1.374-2.977,6.988,6.988,0,0,1,4.237-1.031,14.1,14.1,0,0,1,2.29.229,6.062,6.062,0,0,1,1.832.458v2.977A11.255,11.255,0,0,0,90.4,44.3a10.022,10.022,0,0,0-1.832-.229,7.175,7.175,0,0,0-1.832.229.921.921,0,0,0-.687,1.031.968.968,0,0,0,.229.687c.114.229.458.344.916.458s1.031.344,1.718.573a15.8,15.8,0,0,1,2.634,1.031,3.823,3.823,0,0,1,1.259,1.489,4.747,4.747,0,0,1,.344,1.832,3.693,3.693,0,0,1-1.374,2.977A7.632,7.632,0,0,1,87.424,55.407Zm-.687-15L83.645,36.4h2.634l1.489,2.29,1.6-2.29H92l-3.092,4.008Z" transform="translate(-82.5 -36.4)" fill="#26a8e4"/>
          <path id="Path_144" data-name="Path 144" d="M99.6,54.769a9.574,9.574,0,0,1-3.321-.573A4.934,4.934,0,0,1,94.1,52.365a5.045,5.045,0,0,1-.8-2.977V40.8h3.435v8.244a2.693,2.693,0,0,0,.8,2.176,3.1,3.1,0,0,0,2.176.687,3.3,3.3,0,0,0,2.176-.687,2.933,2.933,0,0,0,.8-2.176V40.8h3.435v8.588a5.045,5.045,0,0,1-.8,2.977,4.824,4.824,0,0,1-2.176,1.832A12.123,12.123,0,0,1,99.6,54.769Z" transform="translate(-80.934 -35.762)" fill="#26a8e4"/>
          <path id="Path_145" data-name="Path 145" d="M106.2,54.755V40.9h7.328a4.2,4.2,0,0,1,3.092,1.031,3.714,3.714,0,0,1,1.031,2.748,3.121,3.121,0,0,1-.458,1.832,2.759,2.759,0,0,1-1.145,1.145,3.487,3.487,0,0,1,1.489,1.031,3.275,3.275,0,0,1,.573,1.947,3.575,3.575,0,0,1-1.145,2.977,4.806,4.806,0,0,1-3.321,1.031H106.2Zm3.435-8.13H112.5a1.427,1.427,0,0,0,1.26-.458,1.749,1.749,0,0,0,.458-1.145,1.206,1.206,0,0,0-.458-1.145,2.361,2.361,0,0,0-1.489-.343h-2.634Zm0,5.725h3.206a1.989,1.989,0,0,0,1.374-.344,1.936,1.936,0,0,0,.458-1.374,1.206,1.206,0,0,0-.458-1.145,2.6,2.6,0,0,0-1.489-.343H109.75V52.35Z" transform="translate(-79.063 -35.747)" fill="#26a8e4"/>
          <path id="Path_146" data-name="Path 146" d="M118.2,54.755V40.9h6.87a5.062,5.062,0,0,1,3.664,1.259,4.991,4.991,0,0,1,1.145,3.435,4.233,4.233,0,0,1-.687,2.4,4.473,4.473,0,0,1-1.947,1.6,1.143,1.143,0,0,1,.458.573,5.582,5.582,0,0,1,.344.8l1.6,3.779h-3.664l-1.489-3.55a1.227,1.227,0,0,0-1.374-.916h-1.6v4.466Zm3.435-6.985h2.519a2.423,2.423,0,0,0,1.6-.458,1.978,1.978,0,0,0,.573-1.489c0-1.374-.687-2.061-1.947-2.061h-2.748Z" transform="translate(-77.323 -35.747)" fill="#26a8e4"/>
        </g>
        <g id="Group_30" data-name="Group 30" transform="translate(0.114)">
          <path id="Path_147" data-name="Path 147" d="M82.6,34.322V15.2H96.684v3.664H87.409v4.008h8.244V26.65H87.409v4.008h9.275v3.664Z" transform="translate(-82.6 -14.627)" fill="#26a8e4"/>
          <path id="Path_148" data-name="Path 148" d="M96.9,34.322V15.2h4.809V30.658h9.046v3.664Z" transform="translate(-80.526 -14.627)" fill="#26a8e4"/>
          <path id="Path_149" data-name="Path 149" d="M110.5,34.322V15.2h14.084v3.664h-9.275v4.008h8.244V26.65h-8.244v4.008h9.275v3.664Z" transform="translate(-78.554 -14.627)" fill="#26a8e4"/>
          <path id="Path_150" data-name="Path 150" d="M124.8,34.322V15.2h4.809v7.443l6.527-7.443h5.5l-6.87,7.786,7.214,11.336h-5.153l-5.153-8.244-2.29,2.4v5.725H124.8Z" transform="translate(-76.481 -14.627)" fill="#26a8e4"/>
          <path id="Path_151" data-name="Path 151" d="M145.611,34.322V18.864H140V15.2h16.03v3.664H150.42V34.322Z" transform="translate(-74.277 -14.627)" fill="#26a8e4"/>
          <path id="Path_152" data-name="Path 152" d="M155.8,34.322V15.2h9.5c2.29,0,3.893.573,5.038,1.832a6.956,6.956,0,0,1,1.6,4.809,6.059,6.059,0,0,1-1.03,3.435,5.443,5.443,0,0,1-2.634,2.176l.687.687.573,1.145,2.29,5.153h-5.038l-2.176-4.809a3.161,3.161,0,0,0-.687-.916,1.716,1.716,0,0,0-1.145-.229h-2.176v6.069H155.8Zm4.809-9.733h3.55a3.3,3.3,0,0,0,2.176-.687,2.549,2.549,0,0,0,.8-2.176c0-1.947-.916-2.863-2.748-2.863h-3.779Z" transform="translate(-71.985 -14.627)" fill="#26a8e4"/>
          <path id="Path_153" data-name="Path 153" d="M180.7,34.394c-3.091,0-5.5-.8-7.1-2.4s-2.4-4.008-2.4-7.328c0-3.55.8-6.069,2.4-7.672,1.6-1.489,4.008-2.29,7.1-2.29s5.5.8,7.1,2.29,2.4,4.122,2.4,7.672c0,3.321-.8,5.84-2.4,7.328A9.871,9.871,0,0,1,180.7,34.394Zm0-4.122a4.412,4.412,0,0,0,3.55-1.374,7.325,7.325,0,0,0,1.145-4.351c0-2.176-.344-3.664-1.145-4.466a4.259,4.259,0,0,0-3.55-1.374,4.412,4.412,0,0,0-3.55,1.374,7.471,7.471,0,0,0-1.145,4.466,6.592,6.592,0,0,0,1.145,4.351A4.114,4.114,0,0,0,180.7,30.272Z" transform="translate(-69.752 -14.7)" fill="#26a8e4"/>
        </g>
      </g>
      <g id="Group_32" data-name="Group 32" transform="translate(5 0.3)">
        <path id="Path_154" data-name="Path 154" d="M30.419,2.4S5.916,10.53,5,37.781H16.221s-1.489-13.282,14.2-22.9Z" transform="translate(-5 0.005)" fill="#26a8e4"/>
        <path id="Path_155" data-name="Path 155" d="M18.552,43.515A28.059,28.059,0,0,0,30,56V68.7S11.338,61.835,6.3,43.4Z" transform="translate(-4.811 5.95)" fill="#26a8e4"/>
        <path id="Path_156" data-name="Path 156" d="M38.729,59.33S54.759,60.475,63,43.3H75.026S69.53,69.063,38.5,70.78Z" transform="translate(-0.142 5.935)" fill="#26a8e4"/>
        <path id="Path_157" data-name="Path 157" d="M78.991,38.314C76.93,1.1,40.977.3,40.977.3l-.114,11.794c16.259,1.718,22.557,11.45,25.076,18.549h-15.8a9.022,9.022,0,0,0-8.473-6.069H32.618v3.893H24.145A1.177,1.177,0,0,0,23,29.727v.344a1.147,1.147,0,0,0,1.145,1.145h8.473v7.214H24.374a1.374,1.374,0,0,0,0,2.748h8.244V45.07h9.046a9.1,9.1,0,0,0,8.7-6.641H67.541Z" transform="translate(-2.39 -0.3)" fill="#26a8e4"/>
      </g>
    </g>
  </g>
</svg>
