<?xml version="1.0" encoding="utf-8"?>
<!-- Generator: Adobe Illustrator 25.0.0, SVG Export Plug-In . SVG Version: 6.00 Build 0)  -->
<svg version="1.1" id="Vrstva_1" xmlns="http://www.w3.org/2000/svg" xmlns:xlink="http://www.w3.org/1999/xlink" x="0px" y="0px"
	 viewBox="0 0 931.1 853.5" style="enable-background:new 0 0 931.1 853.5;" xml:space="preserve">
<style type="text/css">
	.st0{fill:#646B75;}
	.st1{fill:#C7C6C2;}
	.st2{fill:#FDC613;}
	.st3{fill:none;stroke:#CC8A17;stroke-width:6.816;stroke-miterlimit:10;}
	.st4{fill:none;stroke:#CC8A17;stroke-width:4.544;stroke-miterlimit:10;}
	.st5{fill:none;stroke:#CC8A17;stroke-width:3.976;stroke-miterlimit:10;}
	.st6{fill:#CC8A17;}
	.st7{opacity:0.4;fill:#FFFFFF;enable-background:new    ;}
	.st8{fill:none;stroke:#707070;}
	.st9{fill:#C6E8F8;}
	.st10{fill:none;stroke:#70A0B7;stroke-width:6.816;stroke-miterlimit:10;}
	.st11{fill:none;stroke:#70A0B7;stroke-width:4.544;stroke-miterlimit:10;}
	.st12{fill:none;stroke:#70A0B7;stroke-width:3.976;stroke-miterlimit:10;}
	.st13{fill:#70A0B7;}
</style>
<g>
	<path id="Path_172" class="st0" d="M866.6,522.6c0-5.3,7.7-9.6,17.2-9.6s17.2,4.3,17.2,9.6"/>
	<g id="Group_41" transform="translate(1800.212 455.063)">
		<g id="Group_40" transform="translate(0)">
			<g id="Group_39">
				<path id="Path_173" class="st1" d="M-923.1,86.9c-1.6,0-2.8-1.3-2.8-2.8l0,0c0-1.6,1.3-2.8,2.8-2.8h30.8
					c-0.5-1.4-1.9-2.4-3.4-2.4h-0.1v-3.4h0.1l-23.3-0.1c-1.3,0-2.4-1.1-2.4-2.4c0-1.3,1.1-2.4,2.4-2.4c0,0,0,0,0,0h26.1
					c0.3,0,0.6,0.1,0.8,0.2v0c0-2-1.6-3.6-3.6-3.6c0,0,0,0,0,0H-937c-2,0-3.6,1.6-3.6,3.6c0,0,0,0,0,0v1.2c0,2,1.6,3.6,3.6,3.6h0.1
					v3.4h-0.1c-2,0-3.6,1.6-3.6,3.6v1.2c0,2,1.6,3.6,3.6,3.6l0,0h0.1v3.4h-2.1c-2.2,0-4,1.8-4,4c0,0,0,0,0,0V96c0,2.2,1.8,4,4,4l0,0
					h13.9c-1.4-0.4-2.3-1.6-2.3-3.1v-0.3c0-1.8,1.4-3.2,3.2-3.2h33c0.5,0,1,0.1,1.4,0.2c-0.5-1.7-2-2.9-3.8-2.8h-2.1v-3.4h0.1"/>
			</g>
		</g>
	</g>
	<path id="Path_174" class="st2" d="M916.1,579.7c-0.6-0.9-1.2-1.9-1.6-2.9c-0.8-2.1-1.2-4.3-1.9-6.4c-0.8-2.3-1.5-4.7-2.3-7.1
		c-0.9-2.9-1.9-5.8-2.8-8.8h-46.3l-4,12.6c-1,3.2-1.9,6.5-3,9.6c-1.1,3.2-4.1,5-6.2,7.5c-1.8,2.1-3.5,4.4-4.9,6.8
		c-2.9,4.8-4.9,10.2-5.9,15.8c0,0.3-0.1,0.6-0.1,0.9c-4,25.8,13.7,50,39.5,54c25.8,4,50-13.7,54-39.5c2.1-13.7-1.9-27.6-10.9-38.1
		C918.4,582.7,917.2,581.2,916.1,579.7z M853.9,578.2L853.9,578.2L853.9,578.2z"/>
	<path id="Path_175" class="st3" d="M893.2,554.5l-0.1,15c0,3.1-2.5,5.6-5.6,5.6h-7.1c-3.1,0-5.6-2.5-5.6-5.6l0.1-15"/>
	<path id="Path_176" class="st4" d="M891.8,576c-0.3-1.1-1.3-1.8-2.4-1.8l-8.9,0.2l-2.3,0c-1.1,0-2,0.7-2.3,1.8l-8.2,30.5
		c-0.3,1.3,0.4,2.6,1.7,2.9c0.4,0.1,0.9,0.1,1.3,0c2.1-0.7,4.3-0.4,6.1,0.7c0.7,0.5,1.7,0.5,2.5,0.1c1.9-1.1,5.7-2.6,9.3-0.3
		c0.7,0.4,1.5,0.5,2.2,0.1c2-1,4.3-1.5,6.5-1.3c1.3,0.2,2.5-0.8,2.7-2.1c0-0.3,0-0.6-0.1-0.9L891.8,576z"/>
	<path id="Path_177" class="st5" d="M878,609.3l2.7-18.5v-16.4h6.2v16l3.3,18.3"/>
	<path id="Rectangle_145" class="st6" d="M879.1,587h10c1.3,0,2.4,1.1,2.4,2.4l0,0c0,1.3-1.1,2.4-2.4,2.4h-10
		c-1.3,0-2.4-1.1-2.4-2.4l0,0C876.7,588.1,877.8,587,879.1,587z"/>
	<path id="Path_178" class="st7" d="M901.7,640c0,0,10.4-5.6,12-11.9c0,0,3.9-2,6,1.6c0,0-2.3,10.5-15.2,16.6
		C904.5,646.2,899,647.2,901.7,640z"/>
	<g id="Rectangle_150" transform="translate(1824 -12)">
		<rect x="-943" y="13.2" class="st0" width="6" height="521.8"/>
		<rect x="-942.5" y="13.7" class="st8" width="5" height="520.7"/>
	</g>
	<g id="_3">
		<path id="Path_179" class="st0" d="M488.9,172.5c0-4.5,6.6-8.2,14.7-8.2s14.7,3.7,14.7,8.2"/>
		<g id="Group_43" transform="translate(1423.797 105.031)">
			<g id="Group_34">
				<g id="Group_33">
					<path id="Path_159" class="st1" d="M-925.9,84.1c-1.3,0-2.4-1.1-2.4-2.4l0,0l0,0c0-1.3,1.1-2.4,2.4-2.4c0,0,0,0,0,0h26.4
						c-0.5-1.2-1.6-2-2.9-2h-0.1v-2.9h0.1l-20-0.1c-1.1,0-2.1-0.9-2.1-2.1c0-1.1,0.9-2.1,2.1-2.1h22.4c0.2,0,0.5,0,0.7,0.1v0
						c0-1.7-1.4-3.1-3.1-3.1h-35.5c-1.7,0-3.1,1.4-3.1,3.1v1c0,1.7,1.4,3.1,3.1,3.1h0.1v2.9h-0.1c-1.7,0-3.1,1.4-3.1,3.1v1
						c0,1.7,1.4,3.1,3.1,3.1c0,0,0,0,0,0h0.1v2.9h-1.8c-1.9,0-3.4,1.5-3.4,3.4l0,0v1.1c0,1.9,1.5,3.4,3.4,3.4l0,0h11.9
						c-1.2-0.3-2-1.4-2-2.6v-0.3c0-1.5,1.2-2.7,2.7-2.7h0h28.3c0.4,0,0.8,0,1.2,0.1c-0.4-1.5-1.7-2.5-3.3-2.4h-1.8v-2.9h0.1"/>
				</g>
			</g>
		</g>
		<path id="Path_180" class="st2" d="M531.3,221.5c-0.5-0.8-1-1.6-1.4-2.5c-0.7-1.8-1-3.7-1.6-5.5c-0.7-2-1.3-4-1.9-6.1
			c-0.8-2.5-1.6-5-2.4-7.5h-39.7l-3.5,10.8c-0.9,2.7-1.6,5.5-2.6,8.2c-1,2.7-3.6,4.3-5.4,6.5c-1.6,1.8-3,3.8-4.2,5.9
			c-2.5,4.2-4.2,8.7-5.1,13.5c0,0.2-0.1,0.5-0.1,0.7c-3.4,22.2,11.7,42.9,33.9,46.4c22.2,3.4,42.9-11.7,46.4-33.9
			c1.8-11.7-1.6-23.7-9.3-32.7C533.3,224.1,532.3,222.8,531.3,221.5z M478,220.2L478,220.2L478,220.2z"/>
		<path id="Path_181" class="st3" d="M511.7,199.9l-0.1,12.8c0,2.7-2.2,4.8-4.8,4.8h-6.1c-2.7,0-4.8-2.2-4.8-4.8l0.1-12.8"/>
		<path id="Path_182" class="st4" d="M510.5,218.3c-0.2-0.9-1.1-1.5-2-1.5l-7.6,0.1l-2,0c-0.9,0-1.7,0.6-2,1.5l-7.1,26.2
			c-0.3,1.1,0.4,2.2,1.5,2.5c0.4,0.1,0.8,0.1,1.1,0c1.8-0.6,3.7-0.4,5.3,0.6c0.6,0.4,1.5,0.4,2.1,0.1c1.6-0.9,4.9-2.2,8-0.2
			c0.6,0.4,1.3,0.4,1.9,0.1c1.7-0.9,3.7-1.2,5.6-1.1c1.1,0.1,2.2-0.7,2.3-1.8c0-0.3,0-0.5-0.1-0.8L510.5,218.3z"/>
		<path id="Path_183" class="st5" d="M498.6,246.9L501,231v-14.1h5.4v13.8l2.8,15.7"/>
		<path id="Rectangle_146" class="st6" d="M499.6,227.8h8.6c1.1,0,2.1,0.9,2.1,2.1v0c0,1.1-0.9,2.1-2.1,2.1h-8.6
			c-1.1,0-2.1-0.9-2.1-2.1v0C497.6,228.7,498.5,227.8,499.6,227.8z"/>
		<g id="Rectangle_148" transform="translate(1444 -67)">
			<rect x="-943" y="67" class="st0" width="6" height="168"/>
			<rect x="-942.5" y="67.5" class="st8" width="5" height="167"/>
		</g>
	</g>
	<g id="Group_44" transform="translate(1231 544.612)">
		<path id="Path_165" class="st0" d="M-894.1,82.5c0-8.6,12.5-15.5,27.8-15.5s27.8,7,27.8,15.5"/>
		<g id="Group_38" transform="translate(33.598 14.689)">
			<g id="Group_37">
				<g id="Group_36">
					<path id="Path_166" class="st1" d="M-910.7,99.3c-2.5,0-4.6-2.1-4.6-4.6l0,0c0-2.5,2.1-4.6,4.6-4.6h49.9
						c-0.9-2.3-3.1-3.8-5.5-3.8h-0.1v-5.6h0.1l-37.7-0.2c-2.2,0-3.9-1.8-3.9-3.9s1.8-3.9,3.9-3.9l0,0h42.3c0.5,0,0.9,0.1,1.4,0.2v0
						c0-3.3-2.6-5.9-5.9-5.9h-67c-3.3,0-5.9,2.6-5.9,5.9v0v1.9c0,3.3,2.6,5.9,5.9,5.9h0h0.1v5.6h-0.1c-3.3,0-5.9,2.6-5.9,5.9v1.9
						c0,3.3,2.6,5.9,5.9,5.9h0h0.1v5.5h-3.5c-3.6,0-6.4,2.9-6.4,6.4l0,0v2c0,3.6,2.9,6.4,6.4,6.4l0,0h22.5c-2.2-0.6-3.7-2.7-3.7-5
						v-0.6c0-2.9,2.3-5.2,5.2-5.2h53.5c0.8,0,1.6,0.1,2.3,0.3c-0.7-2.8-3.3-4.6-6.2-4.5h-3.5V100h0.1"/>
				</g>
			</g>
		</g>
		<path id="Path_167" class="st9" d="M-814,175.1c-1-1.5-1.9-3.1-2.6-4.8c-1.3-3.4-2-7-3.1-10.4c-1.3-3.8-2.4-7.6-3.7-11.4
			c-1.5-4.7-3.1-9.5-4.6-14.2h-75l-6.6,20.4c-1.7,5.2-3,10.5-4.8,15.6c-1.8,5.2-6.7,8.2-10.1,12.2c-2.9,3.5-5.6,7.2-8,11.1
			c-4.7,7.9-8,16.5-9.6,25.6c-0.1,0.5-0.2,0.9-0.2,1.4c-6.5,41.9,22.2,81,64,87.5c41.9,6.5,81-22.2,87.5-64
			c3.4-22.2-3-44.7-17.6-61.7C-810.2,180-812.2,177.6-814,175.1z M-914.7,172.7L-914.7,172.7L-914.7,172.7L-914.7,172.7z"/>
		<path id="Path_168" class="st10" d="M-851.1,134.3l-0.2,24.3c0,5-4.1,9.1-9.1,9.1h-11.5c-5,0-9.1-4.1-9.1-9.1l0.2-24.3"/>
		<path id="Path_169" class="st11" d="M-853.3,169.1c-0.5-1.7-2-2.9-3.8-2.9l-14.4,0.2l-3.7,0.1c-1.7,0-3.2,1.2-3.7,2.9l-13.3,49.5
			c-0.6,2.1,0.7,4.2,2.8,4.8c0.7,0.2,1.5,0.2,2.2,0c3.3-1.1,7-0.7,10,1.2c1.2,0.8,2.8,0.8,4,0.1c3.1-1.7,9.2-4.1,15.1-0.4
			c1.1,0.7,2.5,0.8,3.6,0.2c2.3-1.1,6.4-2.6,10.5-2.1c2.1,0.2,4.1-1.3,4.3-3.4c0.1-0.5,0-1-0.1-1.5L-853.3,169.1z"/>
		<path id="Path_170" class="st12" d="M-875.7,223l4.5-30v-26.6h10.1v26l5.3,29.7"/>
		<path id="Rectangle_144" class="st13" d="M-873.8,186.9h16.3c2.2,0,3.9,1.8,3.9,3.9l0,0c0,2.2-1.8,3.9-3.9,3.9h-16.3
			c-2.2,0-3.9-1.8-3.9-3.9l0,0C-877.8,188.7-876,186.9-873.8,186.9z"/>
		<path id="Path_171" class="st7" d="M-837.2,272.8c0,0,16.8-9.1,19.4-19.3c0,0,6.3-3.2,9.8,2.6c0,0-3.6,17.1-24.7,26.9
			C-832.7,282.9-841.6,284.6-837.2,272.8z"/>
	</g>
	<g id="Rectangle_147" transform="translate(1300)">
		<rect x="-943" class="st0" width="11" height="612"/>
		<rect x="-942.5" y="0.6" class="st8" width="10" height="610.9"/>
	</g>
	<path id="Path_158" class="st0" d="M39.7,329.9c0-7,10.1-12.6,22.6-12.6s22.6,5.6,22.6,12.6"/>
	<g id="Group_35" transform="translate(970.259 262.168)">
		<g id="Group_34-2" transform="translate(0 0)">
			<g id="Group_33-2">
				<path id="Path_159-2" class="st1" d="M-916.8,93.2c-2.1,0-3.7-1.7-3.7-3.7l0,0l0,0c0-2.1,1.7-3.7,3.7-3.7l0,0h40.5
					c-0.7-1.9-2.5-3.1-4.5-3.1h-0.1v-4.5h0.1l-30.6-0.2c-1.8,0-3.2-1.4-3.2-3.1c0-1.8,1.4-3.2,3.1-3.2c0,0,0.1,0,0.1,0h34.3
					c0.4,0,0.8,0.1,1.1,0.2v0c0-2.6-2.1-4.8-4.8-4.8h-54.3c-2.6,0-4.8,2.1-4.8,4.8v1.6c0,2.6,2.1,4.8,4.8,4.8h0.1v4.5h-0.1
					c-2.6,0-4.8,2.1-4.8,4.8l0,0V89c0,2.6,2.1,4.8,4.8,4.8c0,0,0,0,0,0h0.1v4.4h-2.8c-2.9,0-5.2,2.3-5.2,5.2l0,0v1.7
					c0,2.9,2.3,5.2,5.2,5.2l0,0h18.2c-1.8-0.5-3-2.2-3-4v-0.5c0-2.3,1.9-4.2,4.2-4.2c0,0,0,0,0,0h43.4c0.6,0,1.3,0.1,1.9,0.2
					c-0.6-2.2-2.7-3.8-5-3.6h-2.8v-4.4h0.1"/>
			</g>
		</g>
	</g>
	<path id="Path_160" class="st2" d="M104.7,405c-0.8-1.2-1.5-2.5-2.1-3.9c-1.1-2.7-1.6-5.7-2.5-8.5c-1-3.1-2-6.2-3-9.3
		c-1.2-3.8-2.5-7.7-3.7-11.5H32.6l-5.3,16.5c-1.4,4.2-2.4,8.5-3.9,12.6c-1.5,4.2-5.4,6.6-8.2,9.9c-2.4,2.8-4.5,5.8-6.5,9
		c-3.8,6.4-6.5,13.4-7.8,20.7c-0.1,0.4-0.1,0.8-0.2,1.1c-5.3,34,18,65.8,51.9,71c34,5.3,65.8-18,71-51.9c2.8-18-2.4-36.3-14.3-50.1
		C107.7,408.9,106.1,407,104.7,405z M23,403L23,403L23,403L23,403z"/>
	<path id="Path_161" class="st3" d="M74.5,371.8l-0.2,19.7c0,4.1-3.3,7.4-7.4,7.4h-9.3c-4.1,0-7.4-3.3-7.4-7.4l0.2-19.7"/>
	<path id="Path_162" class="st4" d="M72.8,400.1c-0.4-1.4-1.7-2.4-3.1-2.3L58,398l-3,0.1c-1.4,0-2.6,1-3,2.3l-10.8,40.2
		c-0.4,1.7,0.6,3.4,2.3,3.9c0.6,0.2,1.2,0.1,1.8,0c2.7-0.9,5.7-0.5,8.1,1c1,0.6,2.2,0.7,3.3,0.1c2.5-1.4,7.4-3.4,12.2-0.3
		c0.9,0.6,2,0.6,3,0.2c2.6-1.3,5.6-1.9,8.5-1.7c1.7,0.2,3.3-1,3.5-2.8c0-0.4,0-0.8-0.1-1.2L72.8,400.1z"/>
	<path id="Path_163" class="st5" d="M54.6,443.8l3.6-24.3V398h8.2v21.1l4.3,24.1"/>
	<path id="Rectangle_143" class="st6" d="M56.1,414.5h13.2c1.8,0,3.2,1.4,3.2,3.2l0,0c0,1.8-1.4,3.2-3.2,3.2H56.1
		c-1.8,0-3.2-1.4-3.2-3.2l0,0C52.9,416,54.3,414.5,56.1,414.5z"/>
	<path id="Path_164" class="st7" d="M80.8,462c0,0,16.8-9.1,19.4-19.3c0,0,6.3-3.2,9.8,2.6c0,0-3.6,17.1-24.7,26.9
		C85.3,472.2,76.4,473.8,80.8,462z"/>
	<g id="Rectangle_149" transform="translate(1005 -10)">
		<rect x="-943" y="10.6" class="st0" width="6" height="323.4"/>
		<rect x="-942.5" y="11.2" class="st8" width="5" height="322.2"/>
	</g>
</g>
</svg>
