<svg xmlns="http://www.w3.org/2000/svg" width="452.737" height="394.995" viewBox="0 0 452.737 394.995">
  <g id="zasuvka" transform="matrix(-1, -0.017, 0.017, -1, 1044.541, 1024.363)">
    <g id="Group_46" data-name="Group 46" transform="translate(606.33 624.12)">
      <g id="Group_45" data-name="Group 45" transform="translate(30.519)">
        <rect id="Rectangle_151" data-name="Rectangle 151" width="15.469" height="75.46" rx="1.561" fill="#26a8e4"/>
        <rect id="Rectangle_152" data-name="Rectangle 152" width="15.469" height="75.46" rx="1.561" transform="translate(66.363)" fill="#26a8e4"/>
      </g>
      <path id="Path_184" data-name="Path 184" d="M606.33,632.962V715.83h.176c1.849,33.123,33,59.5,71.26,59.5s69.411-26.378,71.26-59.5h.176V632.962Z" transform="translate(-606.33 -572.385)" fill="#c7e8f8"/>
      <path id="Path_185" data-name="Path 185" d="M642.994,639.862,619.35,693.187h11.822v31.19l21.884-47.288H639.473Z" transform="translate(-564.767 -550.358)" fill="#efc34a"/>
    </g>
    <path id="Path_186" data-name="Path 186" d="M628.394,785.851c0,36.019-1.174,72.066-4.969,107.969-2.915,27.625-7.743,60.07,16.919,82.842,24.5,22.626,67.735,27.479,98.014,9.184,30.077-18.168,29.19-48.049,26.961-74.884-2.388-28.736-2.294-57.544-2.56-86.325-.15-16.062-4.8-33.62,1.814-49.239,6.791-16.038,33.2-31.606,52.309-16.614,8.288,6.5,11.533,15.984,13.532,25.1,6.821,31.143,2.946,63.035,1.659,94.63-.377,9.242-.442,18.85,4.395,27.261,16.464,28.648,63.186,6.8,66.869-17.054,6.243-40.4-1.736-84.468-1.736-125.292,0-27.1.733-54.279,0-81.38-1.076-39.986,88.322-55.82,106.7-55.054" transform="translate(46.811 0)" fill="none" stroke="#cbeaf8" stroke-miterlimit="10" stroke-width="18"/>
  </g>
</svg>
